{
  "header": {
    "PPQ": 240,
    "timeSignature": [
      4,
      4
    ],
    "bpm": 115.00002875000719,
    "name": "115 Jazz Walk"
  },
  "tempo": [
    {
      "absoluteTime": 0,
      "seconds": 0,
      "bpm": 115.00002875000719
    }
  ],
  "timeSignature": [
    {
      "absoluteTime": 0,
      "seconds": 0,
      "numerator": 4,
      "denominator": 2,
      "click": 24,
      "notesQ": 8
    }
  ],
  "startTime": 0,
  "duration": 16.676082787500004,
  "tracks": [
    {
      "startTime": 0,
      "duration": 0,
      "length": 0,
      "notes": [],
      "controlChanges": {},
      "id": 0,
      "name": "115 Jazz Walk"
    },
    {
      "startTime": 0,
      "duration": 16.676082787500004,
      "length": 32,
      "notes": [
        {
          "name": "F2",
          "midi": 41,
          "time": 0,
          "velocity": 0.5669291338582677,
          "duration": 0.499999875
        },
        {
          "name": "A2",
          "midi": 45,
          "time": 0.5043477,
          "velocity": 0.5669291338582677,
          "duration": 0.5391303
        },
        {
          "name": "C3",
          "midi": 48,
          "time": 1.0478258249999999,
          "velocity": 0.5433070866141733,
          "duration": 0.5369563874999999
        },
        {
          "name": "D3",
          "midi": 50,
          "time": 1.5913039499999997,
          "velocity": 0.5511811023622047,
          "duration": 0.5021737875000001
        },
        {
          "name": "F3",
          "midi": 53,
          "time": 2.0978255624999997,
          "velocity": 0.4015748031496063,
          "duration": 0.5086955249999998
        },
        {
          "name": "E3",
          "midi": 52,
          "time": 2.6130428249999995,
          "velocity": 0.4881889763779528,
          "duration": 0.5543476875
        },
        {
          "name": "F3",
          "midi": 53,
          "time": 3.1717383374999994,
          "velocity": 0.4881889763779528,
          "duration": 0.49130422499999993
        },
        {
          "name": "F#3",
          "midi": 54,
          "time": 3.6673903874999993,
          "velocity": 0.4409448818897638,
          "duration": 0.4999998750000003
        },
        {
          "name": "G3",
          "midi": 55,
          "time": 4.1717380875,
          "velocity": 0.4330708661417323,
          "duration": 0.5217390000000002
        },
        {
          "name": "E3",
          "midi": 52,
          "time": 4.6978249125,
          "velocity": 0.44881889763779526,
          "duration": 0.5173911750000002
        },
        {
          "name": "D3",
          "midi": 50,
          "time": 5.221737825,
          "velocity": 0.4409448818897638,
          "duration": 0.49347813750000036
        },
        {
          "name": "B2",
          "midi": 47,
          "time": 5.7195637875,
          "velocity": 0.5826771653543307,
          "duration": 0.5260868250000001
        },
        {
          "name": "G2",
          "midi": 43,
          "time": 6.25217235,
          "velocity": 0.6220472440944882,
          "duration": 0.5391303000000001
        },
        {
          "name": "D3",
          "midi": 50,
          "time": 6.7978243875,
          "velocity": 0.6377952755905512,
          "duration": 0.5543476875
        },
        {
          "name": "G2",
          "midi": 43,
          "time": 7.3565199,
          "velocity": 0.6614173228346457,
          "duration": 0.44999988749999975
        },
        {
          "name": "A2",
          "midi": 45,
          "time": 7.8108676125,
          "velocity": 0.5905511811023622,
          "duration": 0.5434781250000009
        },
        {
          "name": "A#2",
          "midi": 46,
          "time": 8.360867475000001,
          "velocity": 0.6299212598425197,
          "duration": 0.47826075000000046
        },
        {
          "name": "A2",
          "midi": 45,
          "time": 8.845649962500001,
          "velocity": 0.6535433070866141,
          "duration": 0.5586955124999999
        },
        {
          "name": "A#2",
          "midi": 46,
          "time": 9.408693300000001,
          "velocity": 0.6220472440944882,
          "duration": 0.4739129250000005
        },
        {
          "name": "B2",
          "midi": 47,
          "time": 9.889127962500002,
          "velocity": 0.5984251968503937,
          "duration": 0.5652172499999999
        },
        {
          "name": "C3",
          "midi": 48,
          "time": 10.460866950000002,
          "velocity": 0.5826771653543307,
          "duration": 0.5021737875000003
        },
        {
          "name": "E3",
          "midi": 52,
          "time": 10.967388562500002,
          "velocity": 0.4881889763779528,
          "duration": 0.4999998750000003
        },
        {
          "name": "G3",
          "midi": 55,
          "time": 11.471736262500002,
          "velocity": 0.47244094488188976,
          "duration": 0.4891303125000004
        },
        {
          "name": "F#3",
          "midi": 54,
          "time": 11.967388312500002,
          "velocity": 0.47244094488188976,
          "duration": 0.54782595
        },
        {
          "name": "F3",
          "midi": 53,
          "time": 12.521736000000002,
          "velocity": 0.4881889763779528,
          "duration": 0.543478125
        },
        {
          "name": "D#3",
          "midi": 51,
          "time": 13.071735862500002,
          "velocity": 0.49606299212598426,
          "duration": 0.4847824875000004
        },
        {
          "name": "D3",
          "midi": 50,
          "time": 13.560866175000003,
          "velocity": 0.49606299212598426,
          "duration": 0.5630433374999999
        },
        {
          "name": "G#3",
          "midi": 56,
          "time": 14.128257337500003,
          "velocity": 0.5275590551181102,
          "duration": 0.49782596250000033
        },
        {
          "name": "G3",
          "midi": 55,
          "time": 14.630431125000003,
          "velocity": 0.4881889763779528,
          "duration": 0.48260857500000043
        },
        {
          "name": "C#3",
          "midi": 49,
          "time": 15.117387525000003,
          "velocity": 0.5748031496062992,
          "duration": 0.543478125
        },
        {
          "name": "C3",
          "midi": 48,
          "time": 15.667387387500003,
          "velocity": 0.5669291338582677,
          "duration": 0.4869564000000004
        },
        {
          "name": "E2",
          "midi": 40,
          "time": 16.158691612500004,
          "velocity": 0.7086614173228346,
          "duration": 0.5173911750000002
        }
      ],
      "controlChanges": {},
      "id": 1,
      "name": "115 Jazz Walk",
      "instrumentNumber": 33,
      "instrument": "electric bass (finger)",
      "instrumentFamily": "bass",
      "channelNumber": 0,
      "isPercussion": false
    }
  ]
}